<svg xmlns="http://www.w3.org/2000/svg" xmlns:xlink="http://www.w3.org/1999/xlink" width="18" height="18" viewBox="0 0 18 18"><defs><style>.a{fill:#95ee9d;}.b{clip-path:url(#a);}</style><clipPath id="a"><circle class="a" cx="9" cy="9" r="9" transform="translate(-0.455 -0.455)"/></clipPath></defs><g transform="translate(-259.545 -474.545)"><g class="b" transform="translate(260 475)"><g transform="translate(1.343 0.349)"><path class="a" d="M35.575,20.6a5.247,5.247,0,0,0-3.837-2.838,1.36,1.36,0,0,0-.864.174,4.539,4.539,0,0,1-5.15-.014,1.168,1.168,0,0,0-.911-.175,5.329,5.329,0,0,0-3.831,2.91.612.612,0,0,0,.038.688,8.556,8.556,0,0,0,14.51,0A.641.641,0,0,0,35.575,20.6Z" transform="translate(-20.894 -8.787)"/><path class="a" d="M29.959,12.312a4.3,4.3,0,1,0-4.211-4.4A4.308,4.308,0,0,0,29.959,12.312Z" transform="translate(-22.652 -3.713)"/></g></g></g></svg>